/* XPM */
static char * window [] = {
"40 40 5 1",
" 	s None	c None",
".	c #cdb79e",
"X	c #79792E2E0000",
"o	c black",
",  c DeepSkyBlue2",
"....................................... ",
"....................................... ",
"....................................... ",
"....................................... ",
"....XXXXXXXXXXXXXXXXXXXXXXXXXXXXXXXX... ",
"....XXXXXXXXXXXXXXXXXXXXXXXXXXXXXXXX... ",
"....XXXXXX,,,,,,,,,,,,,,,,,,,,XXXXXX... ",
"....XX,,XXXX,,,,,,,,,,,,,,,,XXXX,,XX... ",
"....XX,,,,XXXX,,,,,,,,,,,,XXXX,,,,XX... ",
"....XX,,,,X,XXXX,,,,,,,,XXXX,X,,,,XX... ",
"....XX,,,,X,,,XXX,,,,,,XXX,,,X,,,,XX... ",
"....XX,,,,X,,,,XX,,,,,,XX,,,,X,,,,XX... ",
"....XX,,,,X,,,,XX,,,,,,XX,,,,X,,,,XX... ",
"....XX,,,,X,,,,XX,,,,,,XX,,,,X,,,,XX... ",
"....XX,,,,X,,,,XX,,,,,,XX,,,,X,,,,XX... ",
"....XX,,,,X,,,,XX,,,,,,XX,,,,X,,,,XX... ",
"....XX,,,,X,,,,XX,,,,,,XX,,,,X,,,,XX... ",
"....XX,,,,X,,,,XX,,,,,,XX,,,,X,,,,XX... ",
"....XXXX,,X,,,,XX,,,,,,XX,,,,X,,XXXX... ",
"....XX,,XXX,,,,XX,,,,,,XX,,,,XXX,,XX... ",
"....XX,,,,XX,,,oo,,,,,,XX,,,XX,,,,XX... ",
"....XX,,,,X,XX,oo,,,,,,XX,XX,X,,,,XX... ",
"....XX,,,,X,,,Xoo,,,,,,oXX,,,X,,,,XX... ",
"....XX,,,,X,,,,oo,,,,,,oX,,,,X,,,,XX... ",
"....XX,,,,X,,,,oo,,,,,,XX,,,,X,,,,XX... ",
"....XX,,,,X,,,,XX,,,,,,XX,,,,X,,,,XX... ",
"....XX,,,,X,,,,XX,,,,,,XX,,,,X,,,,XX... ",
"....XX,,,,X,,,,XX,,,,,,XX,,,,X,,,,XX... ",
"....XX,,,,X,,,,XX,,,,,,XX,,,,X,,,,XX... ",
"....XXXXXXXXXXXXXXXXXXXXXXXXXXXXXXXX... ",
"....XXXXXXXXXXXXXXXXXXXXXXXXXXXXXXXX... ",
"......XXXXX....XX......XX....XXXXX..... ",
"........XXXX...XX......XX...XXXX....... ",
"..........XXXX.XX......XX.XXXX......... ",
"............XXXXX......XXXXX........... ",
"..............XXX......XXX............. ",
"....................................... ",
"....................................... ",
"....................................... ",
"....................................... "};
